HIERARCHY
ROOT Hips
{
  OFFSET 0 0 0
  CHANNELS 6 Xposition Yposition Zposition Zrotation Xrotation Yrotation
  JOINT Spine
  {
    OFFSET 0 8.08348 0
    CHANNELS 3 Zrotation Xrotation Yrotation
    JOINT Spine1
    {
      OFFSET 0 24.6145 0
      CHANNELS 3 Zrotation Xrotation Yrotation
      JOINT Neck
      {
        OFFSET 0 24.5134 2.22849
        CHANNELS 3 Zrotation Xrotation Yrotation
        JOINT Head
        {
          OFFSET 0 13.8011 -1.97158
          CHANNELS 3 Zrotation Xrotation Yrotation
          End Site
          {
            OFFSET 0 19.7158 0
          }
        }
      }
      JOINT LeftShoulder
      {
        OFFSET 3.94856 23.7669 -0.001842
        CHANNELS 3 Zrotation Xrotation Yrotation
        JOINT LeftArm
        {
          OFFSET 8.44442 0 0
          CHANNELS 3 Zrotation Xrotation Yrotation
          JOINT LeftForeArm
          {
            OFFSET 36.6799 0 0
            CHANNELS 3 Zrotation Xrotation Yrotation
            JOINT LeftHand
            {
              OFFSET 28.1618 0 0
              CHANNELS 3 Zrotation Xrotation Yrotation
              End Site
              {
                OFFSET 14.7869 0 0
              }
            }
          }
        }
      }
      JOINT RightShoulder
      {
        OFFSET -3.93736 23.7669 -0.001842
        CHANNELS 3 Zrotation Xrotation Yrotation
        JOINT RightArm
        {
          OFFSET -8.44442 0 0
          CHANNELS 3 Zrotation Xrotation Yrotation
          JOINT RightForeArm
          {
            OFFSET -36.6799 0 0
            CHANNELS 3 Zrotation Xrotation Yrotation
            JOINT RightHand
            {
              OFFSET -28.1618 0 0
              CHANNELS 3 Zrotation Xrotation Yrotation
              End Site
              {
                OFFSET -14.7869 0 0
              }
            }
          }
        }
      }
    }
  }
  JOINT LeftUpLeg
  {
    OFFSET 9.8579 0 0
    CHANNELS 3 Zrotation Xrotation Yrotation
    JOINT LeftLeg
    {
      OFFSET 0 -43.507 0
      CHANNELS 3 Zrotation Xrotation Yrotation
      JOINT LeftFoot
      {
        OFFSET 0 -37.4368 0
        CHANNELS 3 Zrotation Xrotation Yrotation
        JOINT LeftToeBase
        {
          OFFSET 0 -6.40764 14.7869
          CHANNELS 3 Zrotation Xrotation Yrotation
          End Site
          {
            OFFSET 0 0 3.94316
          }
        }
      }
    }
  }
  JOINT RightUpLeg
  {
    OFFSET -9.8579 0 0
    CHANNELS 3 Zrotation Xrotation Yrotation
    JOINT RightLeg
    {
      OFFSET 0 -43.507 0
      CHANNELS 3 Zrotation Xrotation Yrotation
      JOINT RightFoot
      {
        OFFSET 0 -37.4368 0
        CHANNELS 3 Zrotation Xrotation Yrotation
        JOINT RightToeBase
        {
          OFFSET 0 -6.40764 14.7869
          CHANNELS 3 Zrotation Xrotation Yrotation
          End Site
          {
            OFFSET 0 0 3.94316
          }
        }
      }
    }
  }
}
MOTION
Frames:	15
Frame Time:	0.0166667
34.6768 88.4461 -44.6658 2.52219 -3.55833 0.896459 -1.55821 3.18502 -2.64651 1.55122 5.01787 -0.964508 1.56359 17.8744 0.841543 2.8329 -19.8823 1.77837 1.51612 7.91309 -4.63273 -46.6193 48.6885 -24.0482 17.1859 -16.7777 -63.1606 -2.38826 -6.51047 8.51403 3.91053 8.25324 4.78692 62.6445 29.8787 -0.762607 3.65466 -5.19541 27.1111 2.24058 -6.18883 -5.9723 -3.2156 21.7154 -0.449235 -4.56079 2.67767 -4.01325 9.56595 -19.2226 14.5129 2.98177e-016 0 1.59028e-015 -4.73893 -22.8395 -0.177651 4.14794 8.8616 5.42395 5.93115 -5.36295 -23.1912 -4.77083e-015 0 -0 
34.5148 88.1612 -42.8065 2.42202 -3.91525 1.10538 -1.29869 3.48124 -2.85035 1.69302 5.03804 -1.03776 1.53507 17.7573 0.903708 2.81397 -19.6841 1.83027 1.43387 8.0523 -4.77815 -46.9245 48.8788 -23.8877 17.3985 -16.5027 -62.471 -2.87164 -6.2687 8.37624 3.83554 8.16658 4.69376 62.5821 30.005 -0.667653 3.54338 -5.31502 26.8774 2.3379 -6.27957 -6.00107 -3.15836 22.5835 -0.075387 -4.10835 4.29439 -4.29356 9.26514 -20.1981 14.7109 1.49089e-016 3.97569e-016 -0 -4.16065 -22.9749 -1.39049 3.68087 11.9779 7.42411 3.41308 -4.89547 -23.8448 2.38542e-015 0 -0 
34.3712 87.909 -40.8821 2.47961 -4.04996 1.49467 -1.09038 3.46239 -3.22 1.65982 5.08609 -1.15795 1.68819 17.6727 0.980675 2.64283 -19.4666 1.85346 1.4101 8.13586 -4.67372 -47.3269 49.2722 -23.6876 17.4041 -16.1099 -61.5703 -3.15959 -6.06738 8.37184 3.78659 8.02559 4.75425 62.7083 29.8931 -0.862716 3.44819 -5.38959 26.8235 2.23712 -6.32583 -6.07319 -3.22473 23.3225 0.148612 -3.60111 5.79337 -4.35048 8.71317 -20.8512 14.5708 4.96962e-016 -3.97569e-016 -0 -3.79356 -22.9594 -2.40277 3.28352 13.9988 8.16002 1.43781 -3.87076 -24.201 7.95139e-016 0 -0 
34.1743 87.7295 -38.9147 2.60128 -3.96189 1.99653 -0.991373 3.11797 -3.62508 1.65211 5.23272 -1.29266 1.76614 17.631 1.01824 2.63218 -19.4222 1.88856 1.28084 8.33755 -4.44378 -47.4237 49.6358 -23.7552 17.1306 -15.5435 -60.3674 -3.14859 -5.89066 8.29032 3.82616 7.97919 4.72441 62.738 29.4877 -0.996699 3.46311 -5.35513 26.8256 2.08169 -6.28802 -6.13805 -3.16602 23.7695 -0.128618 -3.17726 7.26686 -3.94624 8.0243 -21.0106 14.2282 1.98785e-016 0 1.59028e-015 -3.68164 -22.6908 -2.67097 3.1331 14.7736 8.92341 -0.718382 -1.80733 -24.0125 -1.59028e-015 3.18055e-015 -0 
33.9452 87.6873 -36.9597 2.4984 -3.73497 2.5699 -0.630999 2.65353 -4.03576 1.61478 5.35231 -1.42543 1.85272 17.4506 0.996908 2.66559 -19.2086 1.86977 1.14014 8.45451 -4.35196 -47.9297 49.8465 -23.4629 16.6337 -14.7811 -58.8538 -3.18087 -5.69218 8.09699 3.93123 8.02193 4.56681 62.6537 29.0089 -1.04566 3.59801 -5.34109 26.895 1.73998 -6.28755 -5.97099 -2.7925 23.6285 0.25372 -2.5771 9.59113 -4.57064 6.99215 -20.9989 13.8578 0 0 -1.59028e-015 -3.55603 -22.6295 -2.56929 3.18779 16.2613 10.2147 -1.39912 -0.671704 -24.3457 -3.97569e-016 -7.95139e-015 -1.59028e-015 
33.6439 87.7754 -34.9809 2.17947 -3.63048 3.06957 -0.109327 2.34226 -4.4146 1.60753 5.40162 -1.54801 2.06697 17.2826 1.00004 2.46964 -18.9927 1.80799 1.00142 8.67177 -4.14986 -48.5199 50.0021 -23.1835 15.9243 -13.9784 -57.002 -2.78696 -5.58242 7.88115 4.02841 8.04687 4.51425 62.6375 28.4739 -1.16401 3.76917 -5.39209 26.9112 1.56764 -6.36971 -5.89125 -2.05797 23.1749 0.866327 -1.93043 12.6847 -5.90389 5.83386 -20.6502 13.6648 3.97569e-016 0 1.59028e-015 -3.17415 -22.3842 -2.15742 3.36591 17.9484 10.4411 -0.95964 -0.40179 -24.9526 0 3.18055e-015 -0 
33.3053 87.9678 -32.9635 1.68312 -3.77993 3.33819 0.548324 2.26777 -4.58855 1.67246 5.43913 -1.6053 2.21461 17.1235 0.96154 2.33912 -18.7064 1.72081 0.797597 8.85229 -4.06575 -49.4282 50.024 -22.6387 15.1055 -13.0889 -54.7622 -2.68377 -5.48908 7.47783 4.10773 8.04465 4.39469 62.6384 28.1769 -1.3032 3.8899 -5.6052 26.9277 1.36352 -6.59974 -5.75789 -1.13593 22.7858 1.38397 -1.31806 16.0098 -8.33796 5.30198 -19.5225 14.8928 0 0 -0 -2.48814 -21.6075 -1.26964 3.63983 19.1247 9.71339 -0.562863 -0.96756 -26.2641 -1.19271e-015 1.59028e-015 -1.59028e-015 
32.9564 88.2116 -30.927 1.17677 -4.12793 3.46146 1.18919 2.43183 -4.66593 1.78317 5.3436 -1.63016 2.36432 17.105 0.943231 2.1113 -18.431 1.6293 0.57226 9.00775 -3.97493 -50.4966 50.331 -21.856 14.3096 -12.4825 -52.2404 -2.80176 -5.69322 7.4603 4.10457 8.13259 4.38676 62.7078 27.9558 -1.45229 3.90172 -5.7295 26.9504 1.05098 -6.71174 -5.74811 -0.140347 22.0412 1.70985 -0.735027 20.4039 -9.19804 4.09238 -18.1507 14.2972 -3.53113e-031 -6.36111e-015 -3.18055e-015 -1.77691 -20.4831 -0.539349 3.94325 20.1285 9.2122 -2.00007e-005 -1.83449 -26.9552 2.20695e-032 7.95139e-016 -1.59028e-015 
32.619 88.4792 -28.9122 0.740715 -4.50534 3.54947 1.75482 2.59699 -4.70311 1.85289 5.25089 -1.63952 2.5891 17.2833 0.896687 1.81582 -18.2712 1.49651 0.427409 9.11535 -3.80977 -51.6516 50.5821 -21.0792 13.2975 -11.8608 -49.4896 -2.82041 -5.94918 7.14962 4.09063 8.16894 4.50751 62.8317 27.9023 -1.7199 3.85027 -6.01416 27.0329 1.47456 -7.00871 -5.83339 0.872063 20.8789 1.82352 -0.495687 25.3056 -9.20437 3.10242 -16.1343 13.6809 7.95139e-016 3.18055e-015 -0 -1.11886 -19.1701 -0.305006 4.10897 20.7743 9.37035 -0.221256 -2.14465 -27.0435 1.98785e-016 0 -3.18055e-015 
32.2415 88.7573 -26.8703 0.496683 -4.94386 3.40164 1.94564 2.76079 -4.52692 2.08958 5.20027 -1.58834 2.71519 17.5393 0.829828 1.60438 -18.0441 1.36898 0.303438 9.23402 -3.78664 -52.8544 50.9225 -20.1409 12.1327 -11.5608 -46.672 -2.71925 -6.53551 7.05604 3.95562 8.175 4.58974 63.0243 27.9103 -1.96675 3.7909 -6.02714 27.1268 1.66028 -7.02212 -5.96952 1.87613 19.4419 1.83214 -0.847061 30.5989 -9.07329 2.31993 -13.5709 13.0636 -2.38542e-015 3.18055e-015 -0 -0.372069 -17.5754 0.107078 4.09058 21.073 10.1068 -1.26937 -2.52412 -27.7403 0 7.95139e-016 -0 
31.8848 88.9934 -24.9632 0.360189 -5.16583 3.46438 2.08361 2.89634 -4.38608 2.18132 4.90904 -1.53808 2.9877 17.8076 0.692672 1.40293 -17.6546 1.17328 0.228499 9.4552 -3.72383 -53.736 51.3371 -19.449 10.8464 -11.5388 -43.8966 -2.67286 -7.37532 7.04614 3.95355 8.13889 4.56383 63.1782 28.1538 -2.28587 3.68667 -6.05535 27.3169 1.97248 -7.04869 -6.01629 2.80665 17.1285 2.01677 -1.07402 36.7448 -9.67548 1.75278 -11.0086 12.9867 2.38542e-015 3.18055e-015 7.95139e-016 0.160845 -16.2419 0.233237 3.97427 21.471 11.3892 -2.39914 -3.01435 -28.634 -2.98177e-016 -3.97569e-016 -0 
31.5319 89.1825 -23.1396 0.296169 -5.2763 3.58012 2.12669 2.97256 -4.26205 2.2784 4.59987 -1.49391 3.07809 18.032 0.557766 1.42428 -17.2203 1.04191 0.175134 9.34623 -3.6194 -54.9174 51.7917 -18.3485 9.4912 -11.5515 -41.1832 -3.05014 -8.21258 6.9702 3.8525 8.06202 4.54689 63.4001 28.4828 -2.58111 3.58291 -6.16618 27.5945 2.21379 -7.1558 -6.00686 3.65985 14.3589 2.29655 -1.23939 43.2759 -10.8479 2.27429 -8.65607 13.2107 -8.82781e-032 3.18055e-015 1.59028e-015 0.580691 -15.0442 0.261758 3.90539 21.8155 12.7442 -3.89363 -3.30282 -29.6228 -1.98785e-016 -3.97569e-016 3.18055e-015 
31.1841 89.3072 -21.3996 0.257988 -5.38504 3.64863 2.21006 3.05976 -4.00837 2.19984 4.41084 -1.40128 3.25381 18.1088 0.350514 1.44144 -16.8385 0.832176 0.209784 9.39507 -3.52591 -55.6538 51.9934 -17.6412 8.06732 -11.6731 -38.6775 -3.61414 -9.09955 6.97071 3.86775 8.01809 4.39636 63.4306 28.7445 -2.63512 3.52557 -6.153 27.9068 2.34612 -7.14501 -5.97442 4.46579 11.4394 2.58609 -1.33049 49.8104 -11.9398 2.50464 -6.87211 13.2526 8.82781e-032 -3.18055e-015 1.59028e-015 0.99795 -13.8741 0.087635 3.75369 22.0948 13.4474 -5.09599 -4.05465 -30.1331 9.93923e-017 3.97569e-016 -1.59028e-015 
30.8639 89.3906 -19.6888 0.220513 -5.57313 3.67016 2.35214 3.12907 -3.70316 1.97608 4.45013 -1.28993 3.47447 18.1764 0.136445 1.43414 -16.8083 0.613058 0.301224 9.34172 -3.4122 -56.4623 51.9063 -16.8135 6.70704 -11.6841 -36.3619 -4.24594 -9.77183 6.98854 3.95331 8.01008 4.37729 63.3732 28.8627 -2.61988 3.44951 -6.27918 28.3184 2.25304 -7.25914 -5.90844 5.22758 8.59962 2.97458 -1.24443 56.0788 -14.0249 1.84568 -5.53751 14.2583 -2.38542e-015 6.36111e-015 -7.95139e-016 1.35234 -12.5405 -0.13886 3.83857 22.2268 13.0322 -5.54223 -5.31397 -29.8546 1.98785e-016 0 -0 
30.5693 89.475 -18.0356 0.209556 -5.76341 3.70645 2.48046 3.20684 -3.39063 1.77997 4.56671 -1.17827 3.57706 18.1296 -0.036647 1.40852 -16.7921 0.427005 0.316957 9.43839 -3.4046 -57.0828 51.4898 -16.0568 5.34645 -11.9211 -34.2703 -4.35094 -10.5598 6.88757 3.95741 8.03061 4.24498 63.2092 28.9356 -2.36097 3.35803 -6.13858 28.7073 2.14338 -7.1012 -5.84797 5.79408 5.78033 3.34088 -1.10067 61.7343 -14.2194 0.465252 -4.57979 14.1255 -7.95139e-016 -3.18055e-015 -1.59028e-015 1.6102 -11.1081 -0.604549 3.88817 21.9958 12.2505 -6.39198 -6.31871 -29.008 -9.93923e-017 3.97569e-016 3.18055e-015 
